# xmcd
#
# Track frame offsets:
#	150
#	15585
#	28665
#	43572
#	62584
#	76787
#	89416
#	103195
#	118698
#	133710
#	149169
#	166251
#	184318
#	204192
#	220575
#	241557
#	260953
#	287603
#
# Disc length: 3849 seconds
#
# Revision: 1
# Processed by: cddbd v1.5.2PL0 Copyright (c) Steve Scherf et al.
# Submitted via: audiograbber 1.83.01
#
DISCID=fd0f0712
DTITLE=Chartbusters - Country 500 Vol.1 d 15 8532-15
DYEAR=1900
DGENRE=karaoke
TTITLE0=George Strait - All My exes live in Texas
TTITLE1=The Judds - Girls Night out
TTITLE2=Dwight Yokham - Guitars and Cadillacs
TTITLE3=Marie Osmond and Dan Seals - Meet me in Montana
TTITLE4=Randy Travis - Diggin up bones
TTITLE5=The Forrester sisters - Just in case
TTITLE6=Hank Williams Jr. - Born to boogie
TTITLE7=The Judds - Have Mercy
TTITLE8=Nitty Gritty Dirt Band - Fishing in the dark
TTITLE9=Holly Dunn - Daddy's Hands
TTITLE10=Randy Travis - Forever and ever Amen
TTITLE11=The Judds - Love is alive
TTITLE12=Keith Whitley - Don't close your eyes
TTITLE13=K.T.Oslin - Do Ya
TTITLE14=Restless heart - The Bluest eyes in Texas
TTITLE15=The Judds - Grandpa
TTITLE16=Doug Stone - I'd be better off in a pine box
TTITLE17=Data - Track 
EXTD=
EXTT0=
EXTT1=
EXTT2=
EXTT3=
EXTT4=
EXTT5=
EXTT6=
EXTT7=
EXTT8=
EXTT9=
EXTT10=
EXTT11=
EXTT12=
EXTT13=
EXTT14=
EXTT15=
EXTT16=
EXTT17=
PLAYORDER=
